<?xml version="1.0" ?><svg viewBox="0 0 44.69 48.33" xmlns="http://www.w3.org/2000/svg"><defs><style>.cls-1{fill:#353535;}</style></defs><g data-name="Layer 2" id="Layer_2"><g data-name="Layer 1" id="Layer_1-2"><g id="tea"><path class="cls-1" d="M13.36,39.93A10.66,10.66,0,0,1,7.19,30.3V27a1.35,1.35,0,0,0-2.7,0V30.3c0,5.21,3.25,10.5,8.3,12.2A1.35,1.35,0,0,0,13.36,39.93Z"/><path class="cls-1" d="M41.76,20.49H35.6v-.88a2.93,2.93,0,0,0-2.93-2.93H2.93A2.93,2.93,0,0,0,0,19.61V30.53a17.8,17.8,0,0,0,8.39,15.1H2a1.35,1.35,0,0,0,0,2.7H33.64a1.35,1.35,0,0,0,0-2.7H27.21a17.88,17.88,0,0,0,5.24-5A11.56,11.56,0,0,0,44.69,29.14V23.42A2.93,2.93,0,0,0,41.76,20.49Zm-24,25.14A15.11,15.11,0,0,1,2.7,30.53V19.61a.23.23,0,0,1,.23-.23H32.67a.24.24,0,0,1,.23.23V30.53A15.11,15.11,0,0,1,17.8,45.63ZM42,29.14a8.79,8.79,0,0,1-7.93,8.74c2.13-4,1.54-10.31,1.6-14.7h6.1a.24.24,0,0,1,.23.24Z"/><path class="cls-1" d="M12.05,12.37a1.35,1.35,0,0,0,2.69,0,1.55,1.55,0,0,1,.41-1.07A4.11,4.11,0,0,0,16,8.69a4.17,4.17,0,0,0-.89-2.62A1.5,1.5,0,0,1,14.74,5,1.5,1.5,0,0,1,15.15,4,4.17,4.17,0,0,0,16,1.33a1.35,1.35,0,0,0-2.69,0,1.5,1.5,0,0,1-.41,1.06,4.35,4.35,0,0,0,0,5.24,1.58,1.58,0,0,1,0,2.12A4.17,4.17,0,0,0,12.05,12.37Z"/><path class="cls-1" d="M19.55,12.37a1.35,1.35,0,0,0,2.7,0,1.58,1.58,0,0,1,.4-1.07,4.05,4.05,0,0,0,.9-2.61,4.11,4.11,0,0,0-.9-2.62,1.6,1.6,0,0,1,0-2.12,4.11,4.11,0,0,0,.9-2.62,1.35,1.35,0,0,0-2.7,0,1.5,1.5,0,0,1-.4,1.06,4.34,4.34,0,0,0,0,5.24,1.6,1.6,0,0,1,0,2.12A4.11,4.11,0,0,0,19.55,12.37Z"/></g></g></g></svg>